<svg width="610" height="322" viewBox="0 0 610 322" fill="none" xmlns="http://www.w3.org/2000/svg">
<rect x="560" y="50" width="161" height="560" transform="rotate(90 560 50)" fill="#386A16"/>
<path d="M560 211C546.739 211 534.021 216.847 524.645 227.256C515.268 237.664 510 251.78 510 266.5C510 281.22 515.268 295.336 524.645 305.744C534.021 316.153 546.739 322 560 322L560 266.5V211Z" fill="#386A16"/>
<path d="M560 241C573.261 241 585.979 235.205 595.355 224.891C604.732 214.576 610 200.587 610 186C610 171.413 604.732 157.424 595.355 147.109C585.979 136.795 573.261 131 560 131L560 186V241Z" fill="#F9A620"/>
<path d="M389 50C389 36.7392 383.205 24.0215 372.891 14.6447C362.576 5.26784 348.587 1.00116e-06 334 0C319.413 -1.00116e-06 305.424 5.26784 295.109 14.6447C284.795 24.0215 279 36.7392 279 50L334 50H389Z" fill="#F9A620"/>
<path d="M130 211C130 224.261 135.795 236.979 146.109 246.355C156.424 255.732 170.413 261 185 261C199.587 261 213.576 255.732 223.891 246.355C234.205 236.979 240 224.261 240 211L185 211H130Z" fill="#F9A620"/>
<path d="M560 241C553.9 241 548.05 243.687 543.737 248.469C539.423 253.251 537 259.737 537 266.5C537 273.263 539.423 279.749 543.737 284.531C548.05 289.313 553.9 292 560 292L560 266.5V241Z" fill="#92C173"/>
<path d="M560 211C566.1 211 571.95 208.366 576.263 203.678C580.577 198.989 583 192.63 583 186C583 179.37 580.577 173.011 576.263 168.322C571.95 163.634 566.1 161 560 161L560 186V211Z" fill="#FFD449"/>
<path d="M359 50C359 43.9 356.366 38.0499 351.678 33.7365C346.989 29.4232 340.63 27 334 27C327.37 27 321.011 29.4232 316.322 33.7365C311.634 38.0499 309 43.9 309 50L334 50H359Z" fill="#FFD449"/>
<path d="M160 211C160 217.1 162.634 222.95 167.322 227.263C172.011 231.577 178.37 234 185 234C191.63 234 197.989 231.577 202.678 227.263C207.366 222.95 210 217.1 210 211L185 211H160Z" fill="#FFD449"/>
</svg>
