<svg width="1360" height="888" viewBox="0 0 1360 888" fill="none" xmlns="http://www.w3.org/2000/svg">
<rect width="73" height="73" transform="matrix(-1 0 0 1 293 73)" fill="#B0F7FF"/>
<rect width="73" height="73" transform="matrix(-1 0 0 1 913 595)" fill="#B0F7FF"/>
<rect x="366" y="365" width="73" height="73" transform="rotate(180 366 365)" fill="#B0F7FF"/>
<rect x="986" y="887" width="73" height="73" transform="rotate(180 986 887)" fill="#B0F7FF"/>
<rect width="73" height="73" transform="matrix(-1 0 0 1 74 0)" fill="#B0F7FF"/>
<rect width="71" height="73" transform="matrix(-1 0 0 1 694 522)" fill="#B0F7FF"/>
<rect x="160" y="448" width="73" height="73" transform="rotate(180 160 448)" fill="#B0F7FF"/>
<rect x="220" y="73" width="73" height="73" transform="rotate(180 220 73)" fill="#B0F7FF"/>
<rect x="840" y="595" width="73" height="73" transform="rotate(180 840 595)" fill="#B0F7FF"/>
<rect width="73" height="73" transform="matrix(-1 0 0 1 306 375)" fill="#B0F7FF"/>
<rect width="73" height="73" transform="matrix(-1 0 0 1 147 73)" fill="#56AFEE"/>
<rect width="73" height="73" transform="matrix(-1 0 0 1 767 595)" fill="#56AFEE"/>
<rect x="220" y="365" width="73" height="73" transform="rotate(180 220 365)" fill="#56AFEE"/>
<rect x="840" y="887" width="73" height="73" transform="rotate(180 840 887)" fill="#56AFEE"/>
<rect width="73" height="73" transform="matrix(-1 0 0 1 74 146)" fill="#B0F7FF"/>
<rect x="147" y="292" width="73" height="73" transform="rotate(180 147 292)" fill="#B0F7FF"/>
<rect x="767" y="814" width="73" height="73" transform="rotate(180 767 814)" fill="#B0F7FF"/>
<rect width="73" height="73" transform="matrix(-1 0 0 1 434 72)" fill="#1D3D90"/>
<rect width="73" height="73" transform="matrix(-1 0 0 1 1054 594)" fill="#1D3D90"/>
<rect x="507" y="366" width="73" height="73" transform="rotate(180 507 366)" fill="#1D3D90"/>
<rect x="1127" y="888" width="73" height="73" transform="rotate(180 1127 888)" fill="#1D3D90"/>
<rect width="73" height="73" transform="matrix(-1 0 0 1 220 146)" fill="#1D3D90"/>
<rect width="73" height="73" transform="matrix(-1 0 0 1 840 668)" fill="#1D3D90"/>
<rect x="293" y="292" width="73" height="73" transform="rotate(180 293 292)" fill="#1D3D90"/>
<rect x="913" y="814" width="73" height="73" transform="rotate(180 913 814)" fill="#1D3D90"/>
<rect x="1360" y="573" width="241" height="520" transform="rotate(90 1360 573)" fill="#B0F7FF"/>
<rect x="520" y="365" width="266" height="520" transform="rotate(90 520 365)" fill="#B0F7FF"/>
</svg>
