<svg width="1729" height="635" viewBox="0 0 1729 635" fill="none" xmlns="http://www.w3.org/2000/svg">
<rect x="1729" y="613" width="22" height="855" transform="rotate(90 1729 613)" fill="#F9A620"/>
<rect x="1637" y="579" width="22" height="800" transform="rotate(90 1637 579)" fill="#F9A620"/>
<rect x="1637" y="579" width="22" height="804" transform="rotate(90 1637 579)" fill="#F9A620"/>
<rect x="1729" y="579" width="22" height="896" transform="rotate(90 1729 579)" fill="#F9A620"/>
<rect x="1729" y="545" width="22" height="942" transform="rotate(90 1729 545)" fill="#F9A620"/>
<rect x="1729" y="511" width="22" height="1440" transform="rotate(90 1729 511)" fill="#F9A620"/>
<rect x="1729" y="477" width="22" height="1440" transform="rotate(90 1729 477)" fill="#F9A620"/>
<rect width="22" height="855" transform="matrix(0 1 1 0 0 102)" fill="#F9A620"/>
<rect width="22" height="800" transform="matrix(0 1 1 0 92 68)" fill="#F9A620"/>
<rect width="22" height="804" transform="matrix(0 1 1 0 92 68)" fill="#F9A620"/>
<rect width="22" height="896" transform="matrix(0 1 1 0 0 68)" fill="#F9A620"/>
<rect width="22" height="942" transform="matrix(0 1 1 0 0 34)" fill="#F9A620"/>
<rect width="22" height="1440" transform="matrix(0 1 1 0 0 0)" fill="#F9A620"/>
<rect x="185" width="520" height="635" fill="#FFE9A6"/>
<rect x="1025" width="520" height="635" fill="#FFE9A6"/>
</svg>
