<svg width="1440" height="820" viewBox="0 0 1440 820" fill="none" xmlns="http://www.w3.org/2000/svg">
<rect width="1440" height="820" fill="#FB6107"/>
<path d="M438.28 526.339C438.28 526.339 453.27 494.595 471.76 455.437C490.251 416.279 505.24 384.535 505.24 384.535C606.036 440.849 672.757 518.244 654.266 557.402C635.775 596.56 539.075 582.653 438.28 526.339Z" fill="#56AFEE"/>
<path d="M451.265 498.846C451.265 498.846 460.595 479.087 472.105 454.713C483.614 430.339 492.944 410.58 492.944 410.58C558.041 446.95 601.482 496.192 589.973 520.565C578.463 544.939 516.362 535.215 451.265 498.846Z" fill="#1D3D90"/>
<path d="M462.799 474.335C462.799 474.335 466.775 465.913 471.681 455.524C476.587 445.136 480.564 436.714 480.564 436.714C507.862 451.965 526.015 472.751 521.11 483.14C516.204 493.529 490.097 489.587 462.799 474.335Z" fill="#93F4FF"/>
<path d="M560.099 268.966C560.099 268.966 545.109 300.71 526.619 339.868C508.128 379.026 493.138 410.77 493.138 410.77C392.343 354.457 325.622 277.062 344.113 237.904C362.604 198.746 459.304 212.653 560.099 268.966Z" fill="#93F4FF"/>
<path d="M547.114 296.46C547.114 296.46 537.784 316.218 526.274 340.592C514.765 364.966 505.435 384.725 505.435 384.725C440.338 348.356 396.897 299.114 408.406 274.74C419.916 250.366 482.017 260.09 547.114 296.46Z" fill="#56AFEE"/>
<path d="M534.815 322.507C534.815 322.507 530.838 330.929 525.932 341.317C521.027 351.706 517.05 360.128 517.05 360.128C489.751 344.877 471.598 324.091 476.504 313.702C481.409 303.313 507.516 307.255 534.815 322.507Z" fill="#1D3D90"/>
<path d="M868.28 358.955C868.28 358.955 883.27 390.699 901.76 429.857C920.251 469.015 935.24 500.759 935.24 500.759C1036.04 444.445 1102.76 367.05 1084.27 327.892C1065.78 288.734 969.075 302.641 868.28 358.955Z" fill="#56AFEE"/>
<path d="M881.261 386.448C881.261 386.448 890.591 406.207 902.101 430.581C913.61 454.955 922.94 474.713 922.94 474.713C988.037 438.344 1031.48 389.102 1019.97 364.728C1008.46 340.355 946.358 350.079 881.261 386.448Z" fill="#1D3D90"/>
<path d="M892.795 410.959C892.795 410.959 896.772 419.381 901.677 429.77C906.583 440.158 910.56 448.58 910.56 448.58C937.858 433.329 956.011 412.543 951.106 402.154C946.2 391.765 920.093 395.707 892.795 410.959Z" fill="#93F4FF"/>
<path d="M990.095 616.327C990.095 616.327 975.105 584.583 956.615 545.425C938.124 506.267 923.135 474.523 923.135 474.523C822.339 530.836 755.618 608.231 774.109 647.389C792.6 686.547 889.3 672.64 990.095 616.327Z" fill="#93F4FF"/>
<path d="M977.114 588.833C977.114 588.833 967.784 569.074 956.274 544.701C944.765 520.327 935.435 500.568 935.435 500.568C870.338 536.937 826.897 586.179 838.406 610.553C849.916 634.927 912.017 625.203 977.114 588.833Z" fill="#56AFEE"/>
<path d="M964.815 562.787C964.815 562.787 960.838 554.365 955.932 543.977C951.027 533.588 947.05 525.166 947.05 525.166C919.751 540.417 901.598 561.203 906.504 571.592C911.409 581.981 937.516 578.039 964.815 562.787Z" fill="#1D3D90"/>
<rect width="26" height="820" transform="matrix(-1 0 0 1 1273 0)" fill="#93F4FF"/>
<rect width="26" height="820" transform="matrix(-1 0 0 1 1313 0)" fill="#93F4FF"/>
<rect width="27" height="820" transform="matrix(-1 0 0 1 1355 0)" fill="#93F4FF"/>
<rect width="27" height="820" transform="matrix(-1 0 0 1 1396 0)" fill="#93F4FF"/>
<rect width="26" height="820" transform="matrix(-1 0 0 1 1436 0)" fill="#93F4FF"/>
<rect width="26" height="820" transform="matrix(-1 0 0 1 1230 0)" fill="#93F4FF"/>
<rect width="22" height="754" transform="matrix(0 1 1 0 686 156)" fill="#93F4FF"/>
<rect width="22" height="754" transform="matrix(0 1 1 0 686 122)" fill="#93F4FF"/>
<rect width="22" height="754" transform="matrix(0 1 1 0 686 88)" fill="#93F4FF"/>
<rect width="22" height="754" transform="matrix(0 1 1 0 686 54)" fill="#93F4FF"/>
<rect width="22" height="754" transform="matrix(0 1 1 0 686 20)" fill="#93F4FF"/>
<rect width="27" height="607" transform="matrix(-1 0 0 1 111 20)" fill="#93F4FF"/>
<rect width="26" height="607" transform="matrix(-1 0 0 1 152 20)" fill="#93F4FF"/>
<rect width="28" height="607" transform="matrix(-1 0 0 1 196 20)" fill="#93F4FF"/>
<rect width="28" height="607" transform="matrix(-1 0 0 1 238 20)" fill="#93F4FF"/>
<rect width="27" height="607" transform="matrix(-1 0 0 1 279 20)" fill="#93F4FF"/>
<rect width="27" height="607" transform="matrix(-1 0 0 1 67 20)" fill="#93F4FF"/>
</svg>
