<svg width="1361" height="520" viewBox="0 0 1361 520" fill="none" xmlns="http://www.w3.org/2000/svg">
<rect x="560" y="50" width="161" height="560" transform="rotate(90 560 50)" fill="#386A16"/>
<rect x="1361" y="309" width="161" height="561" transform="rotate(90 1361 309)" fill="#386A16"/>
<path d="M800 310C813.261 310 825.979 304.153 835.355 293.744C844.732 283.336 850 269.22 850 254.5C850 239.78 844.732 225.664 835.355 215.256C825.979 204.847 813.261 199 800 199L800 254.5V310Z" fill="#386A16"/>
<path d="M560 211C546.739 211 534.021 216.847 524.645 227.256C515.268 237.664 510 251.78 510 266.5C510 281.22 515.268 295.336 524.645 305.744C534.021 316.153 546.739 322 560 322L560 266.5V211Z" fill="#386A16"/>
<path d="M800 280C786.739 280 774.021 285.795 764.645 296.109C755.268 306.424 750 320.413 750 335C750 349.587 755.268 363.576 764.645 373.891C774.021 384.205 786.739 390 800 390L800 335V280Z" fill="#F9A620"/>
<path d="M560 241C573.261 241 585.979 235.205 595.355 224.891C604.732 214.576 610 200.587 610 186C610 171.413 604.732 157.424 595.355 147.109C585.979 136.795 573.261 131 560 131L560 186V241Z" fill="#F9A620"/>
<path d="M389 50C389 36.7392 383.205 24.0215 372.891 14.6447C362.576 5.26784 348.587 1.00116e-06 334 0C319.413 -1.00116e-06 305.424 5.26784 295.109 14.6447C284.795 24.0215 279 36.7392 279 50L334 50H389Z" fill="#F9A620"/>
<path d="M1230 310C1230 296.739 1224.21 284.021 1213.89 274.645C1203.58 265.268 1189.59 260 1175 260C1160.41 260 1146.42 265.268 1136.11 274.645C1125.79 284.021 1120 296.739 1120 310L1175 310H1230Z" fill="#F9A620"/>
<path d="M970 470C970 483.261 975.795 495.979 986.109 505.355C996.424 514.732 1010.41 520 1025 520C1039.59 520 1053.58 514.732 1063.89 505.355C1074.21 495.979 1080 483.261 1080 470L1025 470H970Z" fill="#F9A620"/>
<path d="M130 211C130 224.261 135.795 236.979 146.109 246.355C156.424 255.732 170.413 261 185 261C199.587 261 213.576 255.732 223.891 246.355C234.205 236.979 240 224.261 240 211L185 211H130Z" fill="#F9A620"/>
<path d="M800 280C806.1 280 811.95 277.313 816.263 272.531C820.577 267.749 823 261.263 823 254.5C823 247.737 820.577 241.251 816.263 236.469C811.95 231.687 806.1 229 800 229L800 254.5V280Z" fill="#92C173"/>
<path d="M560 241C553.9 241 548.05 243.687 543.737 248.469C539.423 253.251 537 259.737 537 266.5C537 273.263 539.423 279.749 543.737 284.531C548.05 289.313 553.9 292 560 292L560 266.5V241Z" fill="#92C173"/>
<path d="M800 310C793.9 310 788.05 312.634 783.737 317.322C779.423 322.011 777 328.37 777 335C777 341.63 779.423 347.989 783.737 352.678C788.05 357.366 793.9 360 800 360L800 335V310Z" fill="#FFD449"/>
<path d="M560 211C566.1 211 571.95 208.366 576.263 203.678C580.577 198.989 583 192.63 583 186C583 179.37 580.577 173.011 576.263 168.322C571.95 163.634 566.1 161 560 161L560 186V211Z" fill="#FFD449"/>
<path d="M359 50C359 43.9 356.366 38.0499 351.678 33.7365C346.989 29.4232 340.63 27 334 27C327.37 27 321.011 29.4232 316.322 33.7365C311.634 38.0499 309 43.9 309 50L334 50H359Z" fill="#FFD449"/>
<path d="M1200 310C1200 303.9 1197.37 298.05 1192.68 293.737C1187.99 289.423 1181.63 287 1175 287C1168.37 287 1162.01 289.423 1157.32 293.737C1152.63 298.05 1150 303.9 1150 310L1175 310H1200Z" fill="#FFD449"/>
<path d="M1000 470C1000 476.1 1002.63 481.95 1007.32 486.263C1012.01 490.577 1018.37 493 1025 493C1031.63 493 1037.99 490.577 1042.68 486.263C1047.37 481.95 1050 476.1 1050 470L1025 470H1000Z" fill="#FFD449"/>
<path d="M160 211C160 217.1 162.634 222.95 167.322 227.263C172.011 231.577 178.37 234 185 234C191.63 234 197.989 231.577 202.678 227.263C207.366 222.95 210 217.1 210 211L185 211H160Z" fill="#FFD449"/>
</svg>
