<svg width="1440" height="570" viewBox="0 0 1440 570" fill="none" xmlns="http://www.w3.org/2000/svg">
<rect width="1440" height="570" fill="#FB6107"/>
<rect width="22" height="855" transform="matrix(0 1 1 0 0 213)" fill="#B0F7FF"/>
<rect width="22" height="800" transform="matrix(0 1 1 0 92 179)" fill="#B0F7FF"/>
<rect width="22" height="804" transform="matrix(0 1 1 0 92 179)" fill="#B0F7FF"/>
<rect width="22" height="896" transform="matrix(0 1 1 0 0 179)" fill="#B0F7FF"/>
<rect width="22" height="942" transform="matrix(0 1 1 0 0 145)" fill="#B0F7FF"/>
<rect width="22" height="1440" transform="matrix(0 1 1 0 0 111)" fill="#B0F7FF"/>
<rect width="22" height="1440" transform="matrix(0 1 1 0 0 77)" fill="#B0F7FF"/>
<rect width="22" height="512" transform="matrix(0 -1 -1 0 1440 376)" fill="#B0F7FF"/>
<rect width="22" height="574" transform="matrix(0 -1 -1 0 1440 410)" fill="#B0F7FF"/>
<rect width="22" height="630" transform="matrix(0 -1 -1 0 1440 444)" fill="#B0F7FF"/>
<rect width="22" height="445" transform="matrix(0 -1 -1 0 1440 342)" fill="#B0F7FF"/>
<rect width="22" height="1440" transform="matrix(0 -1 -1 0 1440 478)" fill="#B0F7FF"/>
<rect width="22" height="1440" transform="matrix(0 -1 -1 0 1440 511)" fill="#B0F7FF"/>
</svg>
