<svg width="1440" height="1601" viewBox="0 0 1440 1601" fill="none" xmlns="http://www.w3.org/2000/svg">
<rect width="27" height="1601" transform="matrix(1 0 0 -1 1329 1601)" fill="#B0F7FF"/>
<rect width="29" height="1601" transform="matrix(1 0 0 -1 1286 1601)" fill="#B0F7FF"/>
<rect width="26" height="1601" transform="matrix(1 0 0 -1 1245 1601)" fill="#B0F7FF"/>
<rect width="28" height="1601" transform="matrix(1 0 0 -1 1372 1601)" fill="#B0F7FF"/>
<rect width="28" height="1601" transform="matrix(1 0 0 -1 1201 1601)" fill="#B0F7FF"/>
<rect width="26" height="1601" transform="matrix(1 0 0 -1 1160 1601)" fill="#B0F7FF"/>
<rect width="22" height="855" transform="matrix(0 1 1 0 0 443)" fill="#B0F7FF"/>
<rect width="22" height="800" transform="matrix(0 1 1 0 92 409)" fill="#B0F7FF"/>
<rect width="22" height="804" transform="matrix(0 1 1 0 92 409)" fill="#B0F7FF"/>
<rect width="22" height="896" transform="matrix(0 1 1 0 0 409)" fill="#B0F7FF"/>
<rect width="22" height="942" transform="matrix(0 1 1 0 0 375)" fill="#B0F7FF"/>
<rect width="22" height="1440" transform="matrix(0 1 1 0 0 341)" fill="#B0F7FF"/>
<rect width="22" height="1440" transform="matrix(0 1 1 0 0 307)" fill="#B0F7FF"/>
<rect width="22" height="512" transform="matrix(0 -1 -1 0 1440 606)" fill="#B0F7FF"/>
<rect width="22" height="574" transform="matrix(0 -1 -1 0 1440 640)" fill="#B0F7FF"/>
<rect width="22" height="630" transform="matrix(0 -1 -1 0 1440 674)" fill="#B0F7FF"/>
<rect width="22" height="445" transform="matrix(0 -1 -1 0 1440 572)" fill="#B0F7FF"/>
<rect width="22" height="1440" transform="matrix(0 -1 -1 0 1440 708)" fill="#B0F7FF"/>
<rect width="22" height="1440" transform="matrix(0 -1 -1 0 1440 742)" fill="#B0F7FF"/>
</svg>
