<svg width="1114" height="170" viewBox="0 0 1114 170" fill="none" xmlns="http://www.w3.org/2000/svg">
<path d="M1114 59.9751V123.879C1114 139.053 1109.8 150.433 1101.4 158.02C1093.1 165.704 1081.32 169.546 1066.06 169.546C1058.24 169.546 1050.9 168.67 1044.05 166.919C1037.29 165.266 1031.5 162.834 1026.67 159.624L1037.68 137.156C1040.77 139.49 1044.63 141.387 1049.26 142.846C1053.99 144.305 1058.48 145.034 1062.73 145.034C1069.2 145.034 1073.88 143.624 1076.78 140.803C1079.77 137.983 1081.27 133.849 1081.27 128.402V127.818C1075.57 132.876 1068.62 135.405 1060.41 135.405C1050.37 135.405 1042.31 132.341 1036.23 126.213C1030.15 119.988 1027.1 110.651 1027.1 98.2007V59.9751H1059.84V92.5107C1059.84 97.9576 1060.7 101.848 1062.44 104.183C1064.18 106.517 1066.74 107.684 1070.12 107.684C1073.3 107.684 1075.96 106.42 1078.08 103.891C1080.21 101.265 1081.27 97.1795 1081.27 91.6353V59.9751H1114Z" fill="#FB6107"/>
<path d="M1012.9 31.5264V139.784H981.761V133.218C977.03 138.568 969.789 141.243 960.037 141.243C953.085 141.243 946.665 139.589 940.775 136.282C934.982 132.878 930.348 128.015 926.872 121.692C923.492 115.37 921.803 108.075 921.803 99.8073C921.803 91.5397 923.492 84.2933 926.872 78.0683C930.348 71.746 934.982 66.9313 940.775 63.6242C946.665 60.2199 953.085 58.5178 960.037 58.5178C968.823 58.5178 975.534 60.8035 980.168 65.375V31.5264H1012.9ZM967.858 115.564C971.623 115.564 974.713 114.203 977.127 111.479C979.541 108.659 980.747 104.768 980.747 99.8073C980.747 94.8467 979.541 91.0047 977.127 88.2813C974.713 85.5578 971.623 84.1961 967.858 84.1961C964.092 84.1961 961.003 85.5578 958.589 88.2813C956.175 91.0047 954.968 94.8467 954.968 99.8073C954.968 104.768 956.175 108.659 958.589 111.479C961.003 114.203 964.092 115.564 967.858 115.564Z" fill="#FB6107"/>
<path d="M868.979 141.242C860.193 141.242 852.276 139.491 845.227 135.989C838.276 132.39 832.82 127.478 828.862 121.253C824.903 114.931 822.924 107.782 822.924 99.8061C822.924 91.8303 824.903 84.7299 828.862 78.5048C832.82 72.1825 838.276 67.2706 845.227 63.769C852.276 60.2674 860.193 58.5166 868.979 58.5166C877.862 58.5166 885.779 60.2674 892.731 63.769C899.779 67.2706 905.234 72.1825 909.096 78.5048C913.055 84.7299 915.034 91.8303 915.034 99.8061C915.034 107.782 913.055 114.931 909.096 121.253C905.234 127.478 899.779 132.39 892.731 135.989C885.779 139.491 877.862 141.242 868.979 141.242ZM868.979 115.563C872.744 115.563 875.834 114.202 878.248 111.478C880.662 108.657 881.869 104.767 881.869 99.8061C881.869 94.8456 880.662 91.0035 878.248 88.2801C875.834 85.5566 872.744 84.1949 868.979 84.1949C865.213 84.1949 862.124 85.5566 859.71 88.2801C857.296 91.0035 856.089 94.8456 856.089 99.8061C856.089 104.767 857.296 108.657 859.71 111.478C862.124 114.202 865.213 115.563 868.979 115.563Z" fill="#FB6107"/>
<path d="M805.837 141.243C795.41 141.243 787.251 138.617 781.361 133.364C775.568 128.015 772.672 120.33 772.672 110.312V31.5264H805.403V108.561C805.403 111.09 806.03 113.036 807.286 114.397C808.541 115.662 810.327 116.294 812.644 116.294C813.706 116.294 814.768 116.148 815.83 115.856C816.989 115.564 817.906 115.224 818.582 114.835L819.886 139.2C815.251 140.562 810.568 141.243 805.837 141.243Z" fill="#FB6107"/>
<path d="M722.805 116.876C726.281 116.876 729.178 116.439 731.495 115.563C733.909 114.688 736.516 113.18 739.316 111.04L756.405 128.402C748.488 136.962 736.95 141.242 721.791 141.242C712.233 141.242 703.833 139.491 696.591 135.989C689.35 132.39 683.75 127.43 679.791 121.107C675.833 114.785 673.854 107.685 673.854 99.8061C673.854 91.8303 675.833 84.7299 679.791 78.5048C683.75 72.1825 689.157 67.2706 696.012 63.769C702.964 60.2674 710.736 58.5166 719.329 58.5166C727.15 58.5166 734.343 60.1215 740.909 63.3313C747.474 66.4438 752.688 71.1126 756.55 77.3376C760.412 83.4654 762.343 90.809 762.343 99.3685L708.178 109.873C710.591 114.542 715.467 116.876 722.805 116.876ZM719.474 80.9851C715.709 80.9851 712.619 82.1037 710.205 84.3408C707.888 86.5779 706.488 89.885 706.005 94.262L731.35 89.3014C730.481 86.7725 728.984 84.7785 726.86 83.3195C724.833 81.7632 722.371 80.9851 719.474 80.9851Z" fill="#FB6107"/>
<path d="M630.867 58.5166C640.425 58.5166 648.053 61.4832 653.75 67.4165C659.543 73.3497 662.439 82.2982 662.439 94.262V139.783H629.708V99.9521C629.708 90.809 626.763 86.2375 620.874 86.2375C617.784 86.2375 615.274 87.4047 613.343 89.7391C611.508 92.0735 610.591 95.7696 610.591 100.827V139.783H577.86V99.9521C577.86 90.809 574.915 86.2375 569.025 86.2375C565.936 86.2375 563.425 87.4047 561.494 89.7391C559.66 92.0735 558.743 95.7696 558.743 100.827V139.783H526.012V59.9756H557.15V67.4165C563.039 61.4832 570.522 58.5166 579.598 58.5166C584.908 58.5166 589.688 59.5379 593.936 61.5805C598.184 63.5258 601.66 66.5411 604.363 70.6263C607.55 66.7356 611.412 63.769 615.95 61.7264C620.487 59.5865 625.46 58.5166 630.867 58.5166Z" fill="#FB6107"/>
<path d="M431.696 141.242C424.937 141.242 418.275 140.512 411.709 139.053C405.144 137.594 399.833 135.697 395.778 133.363L404.758 111.624C408.427 113.861 412.771 115.612 417.792 116.876C422.813 118.141 427.689 118.773 432.42 118.773C436.185 118.773 438.792 118.481 440.24 117.898C441.785 117.217 442.558 116.244 442.558 114.98C442.558 113.715 441.592 112.84 439.661 112.353C437.827 111.867 434.785 111.381 430.537 110.895C424.068 110.116 418.565 109.144 414.027 107.977C409.489 106.712 405.482 104.329 402.006 100.827C398.627 97.3259 396.937 92.3166 396.937 85.7998C396.937 80.6447 398.482 76.0245 401.571 71.9394C404.661 67.8542 409.247 64.5957 415.33 62.1641C421.509 59.7324 428.896 58.5166 437.489 58.5166C443.475 58.5166 449.316 59.1002 455.013 60.2674C460.806 61.3373 465.73 62.9422 469.785 65.0821L460.806 86.8211C453.854 82.9304 446.227 80.9851 437.923 80.9851C430.778 80.9851 427.206 82.2496 427.206 84.7785C427.206 86.043 428.171 86.967 430.102 87.5506C432.033 88.0369 435.075 88.5233 439.227 89.0096C445.695 89.7877 451.151 90.809 455.592 92.0735C460.13 93.3379 464.089 95.721 467.468 99.2225C470.944 102.724 472.682 107.733 472.682 114.25C472.682 119.211 471.137 123.734 468.047 127.819C464.958 131.904 460.323 135.162 454.144 137.594C447.964 140.026 440.482 141.242 431.696 141.242Z" fill="#FB6107"/>
<path d="M386.226 59.9756V123.88C386.226 139.053 382.026 150.433 373.626 158.02C365.322 165.704 353.446 169.546 337.998 169.546C330.081 169.546 322.695 168.671 315.84 166.92C308.984 165.266 303.143 162.835 298.315 159.625L309.322 137.156C312.412 139.491 316.322 141.387 321.053 142.846C325.784 144.305 330.322 145.035 334.667 145.035C341.233 145.035 346.012 143.625 349.005 140.804C351.998 137.983 353.495 133.849 353.495 128.402V126.943C348.571 132.585 341.281 135.406 331.626 135.406C324.867 135.406 318.543 133.849 312.653 130.737C306.86 127.527 302.226 123.004 298.75 117.168C295.274 111.235 293.536 104.475 293.536 96.8882C293.536 89.3014 295.274 82.59 298.75 76.754C302.226 70.9181 306.86 66.4438 312.653 63.3313C318.543 60.1215 324.867 58.5166 331.626 58.5166C342.44 58.5166 350.26 62.0182 355.088 69.0214V59.9756H386.226ZM340.315 109.727C344.177 109.727 347.364 108.56 349.874 106.226C352.481 103.794 353.784 100.682 353.784 96.8882C353.784 93.0948 352.481 90.0309 349.874 87.6965C347.364 85.3621 344.177 84.1949 340.315 84.1949C336.357 84.1949 333.074 85.3621 330.467 87.6965C327.957 90.0309 326.702 93.0948 326.702 96.8882C326.702 100.682 328.005 103.794 330.612 106.226C333.219 108.56 336.453 109.727 340.315 109.727Z" fill="#FB6107"/>
<path d="M249.671 58.5166C259.423 58.5166 267.244 61.4832 273.133 67.4165C279.119 73.3497 282.112 82.2982 282.112 94.262V139.783H249.381V99.9521C249.381 90.809 246.147 86.2375 239.678 86.2375C236.009 86.2375 233.016 87.5506 230.699 90.1768C228.478 92.7057 227.368 96.7423 227.368 102.286V139.783H194.637V59.9756H225.775V67.8542C228.864 64.7416 232.437 62.4073 236.492 60.851C240.547 59.2947 244.94 58.5166 249.671 58.5166Z" fill="#FB6107"/>
<path d="M147.396 59.9765H180.127V139.783H147.396V59.9765ZM163.762 53.5569C157.872 53.5569 153.093 52.0006 149.424 48.8881C145.852 45.6783 144.065 41.6418 144.065 36.7784C144.065 31.9151 145.852 27.9272 149.424 24.8147C153.093 21.6049 157.872 20 163.762 20C169.748 20 174.527 21.5076 178.1 24.5229C181.672 27.5381 183.458 31.4288 183.458 36.1948C183.458 41.2527 181.672 45.4351 178.1 48.7422C174.527 51.952 169.748 53.5569 163.762 53.5569Z" fill="#FB6107"/>
<path d="M133.242 59.9751V104.037C133.242 115.903 129.67 125.095 122.525 131.612C115.38 138.031 105.387 141.241 92.5457 141.241C87.1388 141.241 82.263 140.56 77.9181 139.198C73.5733 137.74 69.8078 135.356 66.6216 132.049C63.3388 135.356 59.5733 137.74 55.3251 139.198C51.0768 140.56 46.2009 141.241 40.6975 141.241C27.7596 141.241 17.7182 138.031 10.5734 131.612C3.52511 125.192 0.000976562 116 0.000976562 104.037V59.9751H32.732V101.848C32.732 110.602 35.6285 114.979 41.4216 114.979C47.3113 114.979 50.2561 110.602 50.2561 101.848V59.9751H82.9871V101.848C82.9871 110.602 85.9319 114.979 91.8216 114.979C94.8147 114.979 96.9871 113.958 98.3388 111.915C99.7871 109.873 100.511 106.517 100.511 101.848V59.9751H133.242Z" fill="#FB6107"/>
<ellipse cx="868.5" cy="100.5" rx="48.5" ry="46.5" fill="#FB6107"/>
<ellipse cx="332.5" cy="97" rx="43.5" ry="43" fill="#FFD449"/>
<circle cx="163.5" cy="27.5" r="27.5" fill="#FB6107"/>
<circle cx="332.5" cy="97.5" r="15.5" fill="#FB6107"/>
<path d="M719.927 109.793C693.825 114.68 676.936 116.445 676.936 116.445C666.066 87.4646 683.946 61.9127 710.049 57.026C736.151 52.1393 762.056 69.3533 763.868 100.145C763.868 100.145 746.03 104.907 719.927 109.793Z" fill="#FFD449"/>
<path d="M720.62 110.032C709.679 112.081 702.604 112.82 702.604 112.82C698.048 100.675 705.539 89.9678 716.48 87.9196C729.956 85.3966 739.561 92.6722 740.32 105.576C740.32 105.576 731.56 107.984 720.62 110.032Z" fill="#FB6107"/>
<circle cx="164" cy="28" r="9" fill="#FFD449"/>
<circle cx="868.5" cy="100.5" r="16.5" fill="#FFD449"/>
</svg>
